#!OML:ASF H:\Pregnant\Project 1\Capture day 1\Session 1\femalepreg.ASF
:FULLY-SPECIFIED
:DEGREES
919
root 8.95387 15.7958 -29.1064 48.8448 -73.7171 330.165
lowerback -13.9043 3.6311 8.38623
upperback -7.08497 3.46272 0.296898
thorax 0.739777 1.40848 -3.89547
lowerneck -19.8691 11.1682 14.0054
upperneck 22.3988 13.4651 -8.28477
head 12.2351 6.23472 -3.03747
rclavicle -5.34172e-014 -1.59028e-014
rhumerus -31.9331 -11.1717 -78.7966
rradius 28.2736
rwrist -5.56997
rhand -14.0489 -14.0722
rfingers 7.12502
rthumb 12.0819 -43.7034
lclavicle -5.34172e-014 -1.59028e-014
lhumerus -38.3977 -5.351 81.6482
lradius 29.2607
lwrist 37.5445
lhand -13.9058 -4.04701
lfingers 7.12502
lthumb 12.2199 25.576
rfemur -9.02088 7.51237 33.3538
rtibia 20.7846
rfoot -14.483 -10.2478
rtoes -31.5831
lfemur -54.4736 -6.43383 -15.8175
ltibia 25.9763
lfoot 1.31176 2.2529
ltoes -24.2751
920
root 8.82758 15.7981 -29.0851 48.8048 -73.773 330.304
lowerback -14.0999 3.64776 7.90461
upperback -7.16421 3.52897 0.140651
thorax 0.75642 1.4479 -3.77372
lowerneck -19.884 11.1559 14.1255
upperneck 22.4699 13.3836 -8.19013
head 12.2573 6.21929 -3.03585
rclavicle -1.63345e-014 -5.56597e-015
rhumerus -32.4697 -11.1615 -78.9059
rradius 28.2446
rwrist -5.38523
rhand -13.357 -13.8281
rfingers 7.12502
rthumb 12.749 -43.4189
lclavicle -1.63345e-014 -5.56597e-015
lhumerus -38.5054 -5.35473 81.5878
lradius 29.0324
lwrist 37.6633
lhand -14.3528 -4.06218
lfingers 7.12502
lthumb 11.7889 25.586
rfemur -8.6041 7.47801 33.3214
rtibia 20.6873
rfoot -14.1665 -9.99307
rtoes -32.0616
lfemur -54.2807 -6.58962 -15.8946
ltibia 26.2822
lfoot 2.10918 1.92486
ltoes -22.3273
921
root 8.70154 15.8019 -29.0608 48.6658 -73.8642 330.558
lowerback -14.2946 3.63872 7.37764
upperback -7.25613 3.56773 -0.00285385
thorax 0.751945 1.4734 -3.61758
lowerneck -19.8877 11.1535 14.1929
upperneck 22.5573 13.3306 -8.07736
head 12.2817 6.21452 -3.01413
rclavicle 1.79652e-014 2.3059e-014
rhumerus -32.989 -11.0668 -78.9997
rradius 28.1721
rwrist -5.16985
rhand -12.6923 -13.6204
rfingers 7.12502
rthumb 13.3898 -43.1701
lclavicle 1.79652e-014 2.3059e-014
lhumerus -38.6392 -5.26643 81.5307
lradius 28.7732
lwrist 37.7834
lhand -14.8301 -4.12378
lfingers 7.12502
lthumb 11.3286 25.5502
rfemur -8.29521 7.41654 33.223
rtibia 20.7422
rfoot -13.8192 -9.71798
rtoes -32.6529
lfemur -54.1354 -6.83174 -15.9684
ltibia 26.6172
lfoot 2.90558 1.75698
ltoes -19.6663
922
root 8.5747 15.8072 -29.0348 48.3971 -73.998 330.918
lowerback -14.4615 3.60515 6.78745
upperback -7.34652 3.58599 -0.137762
thorax 0.727495 1.49004 -3.42123
lowerneck -19.8874 11.1569 14.2348
upperneck 22.6582 13.2926 -7.95365
head 12.3095 6.21561 -2.98154
rclavicle -8.25578e-015 -2.82274e-014
rhumerus -33.4869 -10.9244 -79.081
rradius 28.0467
rwrist -4.92327
rhand -12.0729 -13.436
rfingers 7.12502
rthumb 13.9867 -42.9455
lclavicle -8.25578e-015 -2.82274e-014
lhumerus -38.7889 -5.10972 81.4671
lradius 28.4841
lwrist 37.9054
lhand -15.2941 -4.14234
lfingers 7.12502
lthumb 10.8811 25.5557
rfemur -8.08155 7.34133 33.0686
rtibia 21.0173
rfoot -13.4673 -9.4498
rtoes -33.3199
lfemur -53.9715 -7.21349 -15.9857
ltibia 26.9556
lfoot 3.62498 1.78151
ltoes -16.82
923
root 8.44803 15.8127 -29.0074 47.9553 -74.1712 331.417
lowerback -14.5813 3.54268 6.13247
upperback -7.43098 3.57965 -0.264775
thorax 0.677457 1.49622 -3.18595
lowerneck -19.8914 11.1647 14.2427
upperneck 22.7653 13.2695 -7.8231
head 12.3393 6.22109 -2.93803
rclavicle 9.29318e-015 -4.13472e-014
rhumerus -33.956 -10.7661 -79.1411
rradius 27.8616
rwrist -4.6158
rhand -11.5363 -13.266
rfingers 7.12502
rthumb 14.5038 -42.739
lclavicle 9.29318e-015 -4.13472e-014
lhumerus -38.9497 -4.94108 81.424
lradius 28.1595
lwrist 38.0795
lhand -15.7063 -4.11582
lfingers 7.12502
lthumb 10.4835 25.6028
rfemur -7.99293 7.24094 32.8584
rtibia 21.5842
rfoot -13.1415 -9.18992
rtoes -33.9814
lfemur -53.7622 -7.71085 -15.9725
ltibia 27.2824
lfoot 4.1716 1.99439
ltoes -13.6904
924
root 8.32216 15.8178 -28.9794 47.258 -74.3813 332.14
lowerback -14.6478 3.43111 5.37964
upperback -7.5084 3.52526 -0.364283
thorax 0.595246 1.48149 -2.87668
lowerneck -19.8903 11.1867 14.2023
upperneck 22.8811 13.2811 -7.68243
head 12.3712 6.23912 -2.87656
rclavicle 2.7718e-014 1.82882e-014
rhumerus -34.3786 -10.5415 -79.1729
rradius 27.6126
rwrist -4.26651
rhand -11.1002 -13.1206
rfingers 7.12502
rthumb 14.9239 -42.563
lclavicle 2.7718e-014 1.82882e-014
lhumerus -39.129 -4.70658 81.4082
lradius 27.8066
lwrist 38.3079
lhand -16.0853 -4.05224
lfingers 7.12502
lthumb 10.1178 25.6845
rfemur -8.05192 7.09794 32.5792
rtibia 22.4808
rfoot -12.8453 -8.9413
rtoes -34.6685
lfemur -53.4889 -8.28029 -15.998
ltibia 27.5951
lfoot 4.49677 2.29646
ltoes -10.7565
925
root 8.19786 15.8221 -28.9514 46.2498 -74.6189 333.138
lowerback -14.6447 3.28896 4.55111
upperback -7.578 3.44544 -0.473202
thorax 0.479451 1.45671 -2.54131
lowerneck -19.8995 11.2122 14.1518
upperneck 23.0014 13.2958 -7.52893
head 12.4053 6.25892 -2.80758
rclavicle -6.15363e-014 4.77083e-015
rhumerus -34.7717 -10.3532 -79.1829
rradius 27.305
rwrist -3.85886
rhand -10.7789 -12.9933
rfingers 7.12502
rthumb 15.2335 -42.4125
lclavicle -6.15363e-014 4.77083e-015
lhumerus -39.3112 -4.56584 81.4383
lradius 27.4307
lwrist 38.6805
lhand -16.4925 -4.00252
lfingers 7.12502
lthumb 9.72504 25.753
rfemur -8.27268 6.86647 32.2266
rtibia 23.7361
rfoot -12.5837 -8.67218
rtoes -35.3653
lfemur -53.1305 -8.89575 -16.0986
ltibia 27.8848
lfoot 4.60927 2.61192
ltoes -8.29025
926
root 8.07565 15.8257 -28.9235 44.9023 -74.8749 334.439
lowerback -14.5667 3.12129 3.65445
upperback -7.64245 3.34396 -0.599497
thorax 0.326258 1.42368 -2.19172
lowerneck -19.9149 11.2403 14.1106
upperneck 23.1275 13.3082 -7.36765
head 12.4428 6.27925 -2.73716
rclavicle 9.40748e-014 2.3059e-014
rhumerus -35.1444 -10.2154 -79.1729
rradius 26.9504
rwrist -3.38902
rhand -10.5411 -12.885
rfingers 7.12502
rthumb 15.4626 -42.2866
lclavicle 9.40748e-014 2.3059e-014
lhumerus -39.4907 -4.50789 81.4964
lradius 27.0332
lwrist 39.1639
lhand -16.8932 -3.92027
lfingers 7.12502
lthumb 9.33835 25.8529
rfemur -8.66059 6.50992 31.7969
rtibia 25.3439
rfoot -12.3377 -8.33836
rtoes -36.0564
lfemur -52.6789 -9.49182 -16.3309
ltibia 28.1404
lfoot 4.52847 2.87239
ltoes -6.41351
927
root 7.95582 15.8283 -28.896 43.2167 -75.1356 336.046
lowerback -14.4179 2.92642 2.69177
upperback -7.69744 3.21497 -0.725623
thorax 0.141761 1.38033 -1.81086
lowerneck -19.9445 11.2737 14.0446
upperneck 23.2697 13.3305 -7.19107
head 12.4873 6.3033 -2.65449
rclavicle -2.3879e-014 0
rhumerus -35.4898 -10.0891 -79.1306
rradius 26.5631
rwrist -2.88593
rhand -10.3714 -12.8
rfingers 7.12502
rthumb 15.626 -42.1889
lclavicle -2.3879e-014 0
lhumerus -39.6394 -4.34256 81.5101
lradius 26.5967
lwrist 39.5616
lhand -17.3298 -3.92693
lfingers 7.12502
lthumb 8.91706 25.8646
rfemur -9.21172 5.99684 31.293
rtibia 27.2754
rfoot -12.0691 -7.90055
rtoes -36.7232
lfemur -52.134 -10.0371 -16.7173
ltibia 28.3482
lfoot 4.3163 3.03872
ltoes -5.46162
